<mxfile host="65bd71144e">
    <diagram id="7zW7vxh5Hjt1YSIZ8UYE" name="Page-1">
        <mxGraphModel dx="1980" dy="1113" grid="1" gridSize="10" guides="1" tooltips="1" connect="1" arrows="0" fold="1" page="1" pageScale="1" pageWidth="1169" pageHeight="1654" math="0" shadow="0">
            <root>
                <mxCell id="0"/>
                <mxCell id="1" parent="0"/>
                <mxCell id="2" value="Toolbar" style="rounded=0;whiteSpace=wrap;html=1;" parent="1" vertex="1">
                    <mxGeometry x="45" y="7" width="240" height="1633" as="geometry"/>
                </mxCell>
                <mxCell id="3" value="Navigation" style="rounded=0;whiteSpace=wrap;html=1;" parent="1" vertex="1">
                    <mxGeometry x="285" y="7" width="840" height="60" as="geometry"/>
                </mxCell>
                <mxCell id="4" value="" style="rounded=0;whiteSpace=wrap;html=1;" parent="1" vertex="1">
                    <mxGeometry x="285" y="67" width="840" height="1573" as="geometry"/>
                </mxCell>
                <mxCell id="5" value="Project Management Dashboard" style="text;html=1;align=left;verticalAlign=middle;resizable=0;points=[];autosize=1;strokeColor=none;fillColor=none;fontSize=18;" parent="1" vertex="1">
                    <mxGeometry x="310" y="92" width="280" height="40" as="geometry"/>
                </mxCell>
                <mxCell id="6" value="" style="rounded=1;whiteSpace=wrap;html=1;" parent="1" vertex="1">
                    <mxGeometry x="310" y="141" width="240" height="90" as="geometry"/>
                </mxCell>
                <mxCell id="7" value="" style="rounded=1;whiteSpace=wrap;html=1;" parent="1" vertex="1">
                    <mxGeometry x="585" y="141" width="240" height="90" as="geometry"/>
                </mxCell>
                <mxCell id="8" value="" style="rounded=1;whiteSpace=wrap;html=1;" parent="1" vertex="1">
                    <mxGeometry x="855" y="141" width="240" height="90" as="geometry"/>
                </mxCell>
                <mxCell id="9" value="Projects" style="text;html=1;align=left;verticalAlign=middle;resizable=0;points=[];autosize=1;strokeColor=none;fillColor=none;fontSize=18;" parent="1" vertex="1">
                    <mxGeometry x="322.5" y="141" width="90" height="40" as="geometry"/>
                </mxCell>
                <mxCell id="10" value="&amp;nbsp;Projects_list" style="rounded=1;whiteSpace=wrap;html=1;fontSize=18;align=left;" parent="1" vertex="1">
                    <mxGeometry x="322.5" y="181" width="170" height="40" as="geometry"/>
                </mxCell>
                <mxCell id="11" value="" style="html=1;verticalLabelPosition=bottom;labelBackgroundColor=#ffffff;verticalAlign=top;shadow=0;dashed=0;strokeWidth=1;shape=mxgraph.ios7.misc.down;rounded=1;glass=0;sketch=0;fontSize=8;fillColor=none;strokeColor=#FFFFFF;" parent="1" vertex="1">
                    <mxGeometry x="465" y="198" width="12" height="6" as="geometry"/>
                </mxCell>
                <mxCell id="13" value="Issue Density" style="text;html=1;align=left;verticalAlign=middle;resizable=0;points=[];autosize=1;strokeColor=none;fillColor=none;fontSize=18;" parent="1" vertex="1">
                    <mxGeometry x="592.5" y="141" width="130" height="40" as="geometry"/>
                </mxCell>
                <mxCell id="14" value="N/Module" style="text;html=1;align=left;verticalAlign=middle;resizable=0;points=[];autosize=1;strokeColor=none;fillColor=none;fontSize=18;" parent="1" vertex="1">
                    <mxGeometry x="592.5" y="181" width="100" height="40" as="geometry"/>
                </mxCell>
                <mxCell id="15" value="Issues&amp;nbsp;Gap Percentage" style="text;html=1;align=left;verticalAlign=middle;resizable=0;points=[];autosize=1;strokeColor=none;fillColor=none;fontSize=18;" parent="1" vertex="1">
                    <mxGeometry x="865" y="141" width="210" height="40" as="geometry"/>
                </mxCell>
                <mxCell id="16" value="XX.XX%" style="text;html=1;align=left;verticalAlign=middle;resizable=0;points=[];autosize=1;strokeColor=none;fillColor=none;fontSize=18;" parent="1" vertex="1">
                    <mxGeometry x="865" y="181" width="90" height="40" as="geometry"/>
                </mxCell>
                <mxCell id="17" value="" style="rounded=1;whiteSpace=wrap;html=1;fontSize=18;arcSize=2;" parent="1" vertex="1">
                    <mxGeometry x="310" y="254" width="375" height="410" as="geometry"/>
                </mxCell>
                <mxCell id="18" value="Issues&amp;nbsp;by Status" style="text;html=1;align=left;verticalAlign=middle;resizable=0;points=[];autosize=1;strokeColor=none;fillColor=none;fontSize=18;" parent="1" vertex="1">
                    <mxGeometry x="322.5" y="264" width="160" height="40" as="geometry"/>
                </mxCell>
                <mxCell id="19" value="Statuses" style="rounded=1;whiteSpace=wrap;html=1;fontSize=18;fillStyle=hatch;fillColor=#FFFFFF;" parent="1" vertex="1">
                    <mxGeometry x="320.25" y="306" width="354.5" height="60" as="geometry"/>
                </mxCell>
                <mxCell id="20" value="Issues by status Pie Chart" style="rounded=1;whiteSpace=wrap;html=1;fillStyle=hatch;fontSize=18;fillColor=#FFFFFF;arcSize=2;" parent="1" vertex="1">
                    <mxGeometry x="320.25" y="385" width="354.5" height="270" as="geometry"/>
                </mxCell>
                <mxCell id="21" value="" style="rounded=1;whiteSpace=wrap;html=1;fontSize=18;arcSize=2;" parent="1" vertex="1">
                    <mxGeometry x="720" y="254" width="375" height="410" as="geometry"/>
                </mxCell>
                <mxCell id="22" value="Issues by Priority" style="text;html=1;align=left;verticalAlign=middle;resizable=0;points=[];autosize=1;strokeColor=none;fillColor=none;fontSize=18;" parent="1" vertex="1">
                    <mxGeometry x="735" y="264" width="160" height="40" as="geometry"/>
                </mxCell>
                <mxCell id="23" value="Priorities" style="rounded=1;whiteSpace=wrap;html=1;fontSize=18;fillStyle=hatch;fillColor=#FFFFFF;" parent="1" vertex="1">
                    <mxGeometry x="730.25" y="306" width="354.5" height="60" as="geometry"/>
                </mxCell>
                <mxCell id="24" value="Issues by priority Pie Chart" style="rounded=1;whiteSpace=wrap;html=1;fillStyle=hatch;fontSize=18;fillColor=#FFFFFF;arcSize=2;" parent="1" vertex="1">
                    <mxGeometry x="732.75" y="385" width="354.5" height="270" as="geometry"/>
                </mxCell>
                <mxCell id="25" value="" style="rounded=1;whiteSpace=wrap;html=1;fontSize=18;arcSize=2;" parent="1" vertex="1">
                    <mxGeometry x="310" y="685" width="785" height="462" as="geometry"/>
                </mxCell>
                <mxCell id="26" value="Assigned vs Resolved Issues by Assignee" style="text;html=1;align=left;verticalAlign=middle;resizable=0;points=[];autosize=1;strokeColor=none;fillColor=none;fontSize=18;" parent="1" vertex="1">
                    <mxGeometry x="322.5" y="695" width="360" height="40" as="geometry"/>
                </mxCell>
                <mxCell id="27" value="Legend" style="rounded=1;whiteSpace=wrap;html=1;fontSize=18;fillStyle=hatch;fillColor=#FFFFFF;" parent="1" vertex="1">
                    <mxGeometry x="531.25" y="739" width="342.5" height="60" as="geometry"/>
                </mxCell>
                <mxCell id="28" value="Assigned vs Resolved Issues by Assignee Bar Chart" style="rounded=1;whiteSpace=wrap;html=1;fillStyle=hatch;fontSize=18;fillColor=#FFFFFF;arcSize=2;" parent="1" vertex="1">
                    <mxGeometry x="378.75" y="816" width="652.5" height="313" as="geometry"/>
                </mxCell>
                <mxCell id="33" value="" style="rounded=1;whiteSpace=wrap;html=1;fontSize=18;arcSize=2;" vertex="1" parent="1">
                    <mxGeometry x="312.5" y="1162" width="785" height="462" as="geometry"/>
                </mxCell>
                <mxCell id="34" value="Assigned vs Resolved Issues by Team" style="text;html=1;align=left;verticalAlign=middle;resizable=0;points=[];autosize=1;strokeColor=none;fillColor=none;fontSize=18;" vertex="1" parent="1">
                    <mxGeometry x="325" y="1172" width="330" height="40" as="geometry"/>
                </mxCell>
                <mxCell id="35" value="Legend" style="rounded=1;whiteSpace=wrap;html=1;fontSize=18;fillStyle=hatch;fillColor=#FFFFFF;" vertex="1" parent="1">
                    <mxGeometry x="533.75" y="1216" width="342.5" height="60" as="geometry"/>
                </mxCell>
                <mxCell id="36" value="Assigned vs Resolved Issues by Team Bar Chart" style="rounded=1;whiteSpace=wrap;html=1;fillStyle=hatch;fontSize=18;fillColor=#FFFFFF;arcSize=2;" vertex="1" parent="1">
                    <mxGeometry x="381.25" y="1293" width="652.5" height="313" as="geometry"/>
                </mxCell>
            </root>
        </mxGraphModel>
    </diagram>
</mxfile>